# This file uses centimeters as units for non-parametric coordinates.

mtllib Bateria.mtl
g default
v -3.314659 0.358901 1.564909
v 3.049305 0.358901 1.564909
v -3.314659 3.488718 1.564909
v 3.049305 3.488718 1.564909
v -3.314659 3.488718 -1.564909
v 3.049305 3.488718 -1.564909
v -3.314659 0.358901 -1.564909
v 3.049305 0.358901 -1.564909
v -3.314659 3.953935 0.514290
v 3.049305 3.953935 0.514290
v 3.049305 3.953935 -1.564909
v -3.314659 3.953935 -1.564909
v -3.605263 3.467475 1.707829
v 3.339909 3.467475 1.707829
v 3.339909 3.975178 1.707829
v -3.605263 3.975178 1.707829
v 3.339909 3.467475 -1.707829
v 3.339909 3.975178 -1.707829
v -3.605263 3.467475 -1.707829
v -3.605263 3.975178 -1.707829
v -3.314659 4.588725 0.514290
v 3.049305 4.588725 0.514290
v 3.049305 4.588725 -1.564909
v -3.314659 4.588725 -1.564909
v -1.804944 4.588725 0.514290
v -1.804944 3.953935 0.514290
v 1.526916 3.953935 0.514290
v 1.526916 4.588725 0.514290
v -1.804944 4.588725 1.265292
v -1.804944 3.953935 1.265292
v 1.526916 3.953935 1.265292
v 1.526916 4.588725 1.265292
v -3.314659 0.120867 -1.564909
v 3.049305 0.120867 -1.564909
v 3.049305 0.120867 1.564909
v -3.314659 0.120867 1.564909
v -3.582902 0.017042 -1.696831
v 3.317548 0.017042 -1.696831
v 3.317548 0.017042 1.696831
v -3.582902 0.017042 1.696831
v -1.064577 4.588725 0.514290
v -1.064577 4.588725 1.265292
v -1.064577 3.953935 1.265292
v -1.064577 3.953935 0.514290
v -0.669281 3.953935 1.265292
v -0.669281 3.953935 0.514290
v -0.515556 4.588725 0.514290
v -0.515556 4.588725 1.265292
v -0.515556 3.953935 1.265292
v -0.515556 3.953935 0.514290
v -0.669281 4.481005 0.514290
v -0.669281 4.481005 1.265292
v -1.064577 4.481005 0.514290
v -1.064577 4.481005 1.265292
v -0.515556 4.481005 0.514290
v -0.515556 4.481005 1.265292
v -0.515556 4.454676 0.514290
v -0.515556 4.454676 1.265292
v -0.669281 4.454676 0.514290
v -0.669281 4.454676 1.265292
v -1.064578 4.588725 -1.564908
v -1.064578 3.953935 -1.564908
v -0.515556 4.588725 -1.564908
v -0.515556 3.953935 -1.564908
v -1.064577 4.483396 0.514290
v -1.064578 4.483396 -1.564908
v -0.669281 4.483396 0.514290
v -0.515556 4.483396 0.514290
v -0.515556 4.483396 -1.564908
vt 0.458438 0.235042
vt 0.527773 0.235042
vt 0.527773 0.304377
vt 0.458438 0.304377
vt 0.458438 0.229769
vt 0.527773 0.229769
vt 0.375777 0.246522
vt 0.445112 0.246522
vt 0.445112 0.315857
vt 0.375777 0.315857
vt 0.375777 0.241249
vt 0.445112 0.241249
vt 0.591833 0.166640
vt 0.591833 0.032121
vt 0.611828 0.032121
vt 0.611828 0.166640
vt 0.688634 0.148277
vt 0.688634 0.023099
vt 0.707240 0.023099
vt 0.707240 0.148277
vt 0.832893 0.101935
vt 0.832893 0.055874
vt 0.846956 0.055874
vt 0.846956 0.101935
vt 0.890638 0.096067
vt 0.890638 0.050006
vt 0.904700 0.050006
vt 0.904700 0.096067
vt 0.911575 0.141459
vt 0.897512 0.141459
vt 0.897512 0.124822
vt 0.911575 0.124822
vt 0.899137 0.154251
vt 0.913200 0.154251
vt 0.913200 0.170888
vt 0.899137 0.170888
vt 0.775805 0.170757
vt 0.775805 0.242851
vt 0.765464 0.242851
vt 0.765464 0.170757
vt 0.799398 0.170757
vt 0.799398 0.242851
vt 0.789057 0.242851
vt 0.789057 0.170757
vt 0.786529 0.242851
vt 0.786529 0.170757
vt 0.813131 0.170757
vt 0.813131 0.242851
vt 0.810603 0.242851
vt 0.810603 0.170757
vt 0.720929 0.251188
vt 0.720929 0.408136
vt 0.712979 0.408136
vt 0.712979 0.251188
vt 0.737493 0.251188
vt 0.737493 0.408136
vt 0.729543 0.408136
vt 0.729543 0.251188
vt 0.963854 0.023610
vt 0.980255 0.023610
vt 0.980255 0.069670
vt 0.930409 0.069670
vt 0.930409 0.023610
vt 0.980255 0.006973
vt 0.963854 0.006973
vt 0.247600 0.424919
vt 0.247600 0.272053
vt 0.322780 0.272053
vt 0.322780 0.424919
vt 0.682068 0.438857
vt 0.682068 0.216072
vt 0.687071 0.205899
vt 0.687071 0.449031
vt 0.572502 0.216072
vt 0.567498 0.205899
vt 0.572502 0.438857
vt 0.567498 0.449031
vt 0.732475 0.163796
vt 0.732475 0.009939
vt 0.808142 0.009939
vt 0.808142 0.163796
vt 0.804976 0.157359
vt 0.804976 0.107512
vt 0.804976 0.095350
vt 0.804976 0.016377
vt 0.758915 0.016377
vt 0.758915 0.050103
vt 0.758915 0.095350
vt 0.758915 0.098755
vt 0.758915 0.107512
vt 0.758915 0.123914
vt 0.758915 0.157359
vt 0.513418 0.114878
vt 0.487949 0.114878
vt 0.487949 0.045611
vt 0.513418 0.045611
vt 0.513418 0.120091
vt 0.487949 0.120091
vt 0.513418 0.133497
vt 0.487949 0.133497
vt 0.487949 0.158605
vt 0.513418 0.158605
vt 0.937892 0.122657
vt 0.937892 0.167904
vt 0.921255 0.167904
vt 0.921255 0.122657
vt 0.983953 0.167904
vt 0.937892 0.088932
vt 0.983953 0.088932
vt 0.986822 0.225613
vt 0.883279 0.225613
vt 0.878914 0.216739
vt 0.991186 0.216739
vt 0.883279 0.436150
vt 0.878914 0.445024
vt 0.986822 0.436150
vt 0.991186 0.445024
vt 0.930483 0.091531
vt 0.930483 0.108168
vt 0.921726 0.108168
vt 0.921726 0.091531
vt 0.753138 0.170757
vt 0.753138 0.242851
vt 0.738381 0.242851
vt 0.738381 0.170757
vt 0.819282 0.167612
vt 0.819282 0.121552
vt 0.828039 0.121552
vt 0.831444 0.121552
vt 0.831444 0.167612
vt 0.046876 0.439878
vt 0.046876 0.298897
vt 0.116211 0.298897
vt 0.116211 0.439878
vt 0.041603 0.439878
vt 0.041603 0.298897
vt 0.148941 0.434310
vt 0.148941 0.293329
vt 0.218276 0.293329
vt 0.218276 0.434310
vt 0.223549 0.293329
vt 0.223549 0.434310
vt 0.561604 0.163796
vt 0.561604 0.009939
vt 0.572851 0.009939
vt 0.572851 0.163796
vt 0.622508 0.163796
vt 0.622508 0.009939
vt 0.633755 0.009939
vt 0.633755 0.163796
vt 0.855688 0.170723
vt 0.841626 0.170723
vt 0.841626 0.125476
vt 0.855688 0.125476
vt 0.865128 0.101808
vt 0.865128 0.051962
vt 0.879191 0.051962
vt 0.879191 0.101808
vt 0.879537 0.159574
vt 0.879537 0.126130
vt 0.893600 0.126130
vt 0.893600 0.159574
vt 0.874317 0.162471
vt 0.860254 0.162471
vt 0.860254 0.128745
vt 0.874317 0.128745
vt 0.860353 0.041427
vt 0.846291 0.041427
vt 0.846291 0.025026
vt 0.860353 0.025026
vt 0.873886 0.173825
vt 0.873886 0.224654
vt 0.865182 0.224654
vt 0.865182 0.173825
vt 0.693489 0.161077
vt 0.716625 0.161077
vt 0.716625 0.191925
vt 0.693489 0.191925
vt 0.829353 0.177313
vt 0.844110 0.177313
vt 0.844110 0.225383
vt 0.829353 0.225383
vt 0.668165 0.132146
vt 0.647332 0.132146
vt 0.647332 0.015150
vt 0.668165 0.015150
vt 0.678051 0.139745
vt 0.678051 0.172178
vt 0.646773 0.172178
vt 0.646773 0.139745
vn 0.000000 0.000000 1.000000
vn 0.000000 0.000000 1.000000
vn 0.000000 0.000000 1.000000
vn 0.000000 0.000000 1.000000
vn 0.000000 1.000000 0.000000
vn 0.000000 1.000000 0.000000
vn 0.000000 1.000000 0.000000
vn 0.000000 1.000000 0.000000
vn 0.000000 1.000000 0.000000
vn 0.000000 0.000000 -1.000000
vn 0.000000 0.000000 -1.000000
vn 0.000000 0.000000 -1.000000
vn 0.000000 0.000000 -1.000000
vn 0.000000 -1.000000 0.000000
vn 0.000000 -1.000000 0.000000
vn 0.000000 -1.000000 0.000000
vn 0.000000 -1.000000 0.000000
vn 1.000000 0.000000 0.000000
vn 1.000000 0.000000 0.000000
vn 1.000000 0.000000 0.000000
vn 1.000000 0.000000 0.000000
vn -1.000000 0.000000 0.000000
vn -1.000000 0.000000 0.000000
vn -1.000000 0.000000 0.000000
vn -1.000000 0.000000 0.000000
vn 0.000000 0.000000 1.000000
vn 0.000000 0.000000 1.000000
vn 0.000000 0.000000 1.000000
vn 0.000000 0.000000 1.000000
vn 1.000000 0.000000 0.000000
vn 1.000000 0.000000 0.000000
vn 1.000000 0.000000 0.000000
vn 1.000000 0.000000 0.000000
vn 0.000000 0.000000 -1.000000
vn 0.000000 0.000000 -1.000000
vn 0.000000 0.000000 -1.000000
vn 0.000000 0.000000 -1.000000
vn -1.000000 0.000000 0.000000
vn -1.000000 0.000000 0.000000
vn -1.000000 0.000000 0.000000
vn -1.000000 0.000000 0.000000
vn 0.000000 -0.989134 -0.147019
vn 0.000000 -0.989134 -0.147019
vn 0.000000 -0.989134 -0.147019
vn 0.000000 -0.989134 -0.147019
vn -0.072905 -0.997339 0.000000
vn -0.072905 -0.997339 0.000000
vn -0.072905 -0.997339 0.000000
vn -0.072905 -0.997339 0.000000
vn 0.000000 -0.989134 0.147019
vn 0.000000 -0.989134 0.147019
vn 0.000000 -0.989134 0.147019
vn 0.000000 -0.989134 0.147019
vn 0.000000 1.000000 0.000000
vn 0.000000 1.000000 0.000000
vn 0.000000 1.000000 0.000000
vn 0.000000 1.000000 0.000000
vn 0.000000 1.000000 0.000000
vn 0.000000 1.000000 0.000000
vn 0.000000 1.000000 0.000000
vn 0.000000 1.000000 0.000000
vn 0.000000 1.000000 0.000000
vn 0.000000 1.000000 0.000000
vn 0.000000 1.000000 0.000000
vn 0.000000 1.000000 0.000000
vn 0.000000 1.000000 0.000000
vn 0.000000 1.000000 0.000000
vn 0.000000 1.000000 0.000000
vn 0.072904 -0.997339 0.000000
vn 0.072904 -0.997339 0.000000
vn 0.072904 -0.997339 0.000000
vn 0.072904 -0.997339 0.000000
vn 0.000000 0.000000 1.000000
vn 0.000000 0.000000 1.000000
vn 0.000000 0.000000 1.000000
vn 0.000000 0.000000 1.000000
vn 1.000000 0.000000 0.000000
vn 1.000000 0.000000 0.000000
vn 1.000000 0.000000 0.000000
vn 1.000000 0.000000 0.000000
vn 0.000000 0.000000 -1.000000
vn 0.000000 0.000000 -1.000000
vn 0.000000 0.000000 -1.000000
vn 0.000000 0.000000 -1.000000
vn -1.000000 0.000000 0.000000
vn -1.000000 0.000000 0.000000
vn -1.000000 0.000000 0.000000
vn -1.000000 0.000000 0.000000
vn 0.000000 0.000000 1.000000
vn 0.000000 0.000000 1.000000
vn 0.000000 0.000000 1.000000
vn 0.000000 0.000000 1.000000
vn 0.000000 0.000000 1.000000
vn 0.000000 0.000000 1.000000
vn 0.000000 0.000000 1.000000
vn 0.000000 0.000000 1.000000
vn -1.000000 0.000000 0.000000
vn -1.000000 0.000000 0.000000
vn -1.000000 0.000000 0.000000
vn -1.000000 0.000000 0.000000
vn 0.000000 -1.000000 0.000000
vn 0.000000 -1.000000 0.000000
vn 0.000000 -1.000000 0.000000
vn 0.000000 -1.000000 0.000000
vn 1.000000 0.000000 0.000000
vn 1.000000 0.000000 0.000000
vn 1.000000 0.000000 0.000000
vn 1.000000 0.000000 0.000000
vn 0.000000 1.000000 0.000000
vn 0.000000 1.000000 0.000000
vn 0.000000 1.000000 0.000000
vn 0.000000 1.000000 0.000000
vn 0.000000 0.000000 -1.000000
vn 0.000000 0.000000 -1.000000
vn 0.000000 0.000000 -1.000000
vn 0.000000 0.000000 -1.000000
vn 1.000000 0.000000 0.000000
vn 1.000000 0.000000 0.000000
vn 1.000000 0.000000 0.000000
vn 1.000000 0.000000 0.000000
vn 0.000000 0.000000 1.000000
vn 0.000000 0.000000 1.000000
vn 0.000000 0.000000 1.000000
vn 0.000000 0.000000 1.000000
vn -1.000000 0.000000 0.000000
vn -1.000000 0.000000 0.000000
vn -1.000000 0.000000 0.000000
vn -1.000000 0.000000 0.000000
vn 0.000000 0.785822 -0.618452
vn 0.000000 0.785822 -0.618452
vn 0.000000 0.785822 -0.618452
vn 0.000000 0.785822 -0.618452
vn 0.360960 0.932581 0.000000
vn 0.360960 0.932581 0.000000
vn 0.360960 0.932581 0.000000
vn 0.360960 0.932581 0.000000
vn 0.000000 0.785822 0.618452
vn 0.000000 0.785822 0.618452
vn 0.000000 0.785822 0.618452
vn 0.000000 0.785822 0.618452
vn -0.360959 0.932582 0.000000
vn -0.360959 0.932582 0.000000
vn -0.360959 0.932582 0.000000
vn -0.360959 0.932582 0.000000
vn 0.000000 1.000000 0.000000
vn 0.000000 1.000000 0.000000
vn 0.000000 1.000000 0.000000
vn 0.000000 1.000000 0.000000
vn 0.000000 0.000000 1.000000
vn 0.000000 0.000000 1.000000
vn 0.000000 0.000000 1.000000
vn 0.000000 0.000000 1.000000
vn 0.000000 -1.000000 0.000000
vn 0.000000 -1.000000 0.000000
vn 0.000000 -1.000000 0.000000
vn 0.000000 -1.000000 0.000000
vn 0.000000 1.000000 0.000000
vn 0.000000 1.000000 0.000000
vn 0.000000 1.000000 0.000000
vn 0.000000 1.000000 0.000000
vn -0.000001 -1.000000 0.000000
vn -0.000001 -1.000000 0.000000
vn -0.000001 -1.000000 0.000000
vn -0.000001 -1.000000 0.000000
vn 0.000000 1.000000 0.000000
vn 0.000000 1.000000 0.000000
vn 0.000000 1.000000 0.000000
vn 0.000000 1.000000 0.000000
vn 0.000000 -1.000000 0.000000
vn 0.000000 -1.000000 0.000000
vn 0.000000 -1.000000 0.000000
vn 0.000000 -1.000000 0.000000
vn 1.000000 0.000000 0.000000
vn 1.000000 0.000000 0.000000
vn 1.000000 0.000000 0.000000
vn 1.000000 0.000000 0.000000
vn -1.000000 0.000000 0.000000
vn -1.000000 0.000000 0.000000
vn -1.000000 0.000000 0.000000
vn -1.000000 0.000000 0.000000
vn -1.000000 0.000000 0.000000
vn -1.000000 0.000000 0.000000
vn -1.000000 0.000000 0.000000
vn -1.000000 0.000000 0.000000
vn 0.000000 0.000000 1.000000
vn 0.000000 0.000000 1.000000
vn 0.000000 0.000000 1.000000
vn 0.000000 0.000000 1.000000
vn 1.000000 0.000000 0.000000
vn 1.000000 0.000000 0.000000
vn 1.000000 0.000000 0.000000
vn 1.000000 0.000000 0.000000
vn 0.000000 0.000000 1.000000
vn 0.000000 0.000000 1.000000
vn 0.000000 0.000000 1.000000
vn 0.000000 0.000000 1.000000
vn 0.000000 0.000000 1.000000
vn 0.000000 0.000000 1.000000
vn 0.000000 0.000000 1.000000
vn 0.000000 0.000000 1.000000
vn 0.000000 1.000000 0.000000
vn 0.000000 1.000000 0.000000
vn 0.000000 1.000000 0.000000
vn 0.000000 1.000000 0.000000
vn 0.000000 1.000000 0.000000
vn 0.000000 1.000000 0.000000
vn 0.000000 1.000000 0.000000
vn 0.000000 1.000000 0.000000
vn 0.000000 1.000000 0.000000
vn 0.000000 1.000000 0.000000
vn -0.000000 0.000000 -1.000000
vn -0.000000 0.000000 -1.000000
vn -0.000000 0.000000 -1.000000
vn -0.000000 0.000000 -1.000000
vn 1.000000 0.000000 -0.000000
vn 1.000000 0.000000 -0.000000
vn 1.000000 0.000000 -0.000000
vn 1.000000 0.000000 -0.000000
vn -1.000000 0.000000 -0.000000
vn -1.000000 0.000000 -0.000000
vn -1.000000 0.000000 -0.000000
vn -1.000000 0.000000 -0.000000
vn 0.000000 0.000000 -1.000000
vn 0.000000 0.000000 -1.000000
vn 0.000000 0.000000 -1.000000
vn 0.000000 0.000000 -1.000000
s off
g Bateria Bateria
usemtl initialShadingGroup
f 1/131/1 2/132/2 4/133/3 3/134/4
f 25/59/5 41/60/6 61/61/7 24/62/8 21/63/9
f 5/137/10 6/138/11 8/139/12 7/140/13
f 37/66/14 38/67/15 39/68/16 40/69/17
f 2/1/18 8/2/19 6/3/20 4/4/21
f 7/7/22 1/8/23 3/9/24 5/10/25
f 13/143/26 14/144/27 15/145/28 16/146/29
f 14/13/30 17/14/31 18/15/32 15/16/33
f 20/147/34 18/148/35 17/149/36 19/150/37
f 19/17/38 13/18/39 16/19/40 20/20/41
f 3/70/42 4/71/43 14/72/44 13/73/45
f 4/71/46 6/74/47 17/75/48 14/72/49
f 19/77/50 17/75/51 6/74/52 5/76/53
f 16/78/54 15/79/55 18/80/56 20/81/57 12/82/58 62/83/59 64/84/60 11/85/61 10/86/62 27/87/63 50/88/64 46/89/65 44/90/66 26/91/67 9/92/68
f 5/76/69 3/70/70 13/73/71 19/77/72
f 48/151/73 49/152/74 31/153/75 32/154/76
f 10/21/77 11/22/78 23/23/79 22/24/80
f 24/155/81 61/156/82 62/157/83 12/158/84
f 12/25/85 9/26/86 21/27/87 24/28/88
f 9/159/89 26/160/90 25/161/91 21/162/92
f 28/163/93 27/164/94 10/165/95 22/166/96
f 25/29/97 26/30/98 30/31/99 29/32/100
f 49/93/101 50/94/102 27/95/103 31/96/104
f 27/33/105 28/34/106 32/35/107 31/36/108
f 28/103/109 47/104/110 48/105/111 32/106/112
f 7/140/113 8/139/114 34/141/115 33/142/116
f 8/2/117 2/1/118 35/5/119 34/6/120
f 2/132/121 1/131/122 36/135/123 35/136/124
f 1/8/125 7/7/126 33/11/127 36/12/128
f 33/116/129 34/110/130 38/113/131 37/117/132
f 34/110/133 35/111/134 39/112/135 38/113/136
f 35/111/137 36/114/138 40/115/139 39/112/140
f 36/114/141 33/116/142 37/117/143 40/115/144
f 42/64/145 41/60/146 25/59/147 29/65/148
f 29/167/149 30/168/150 43/169/151 42/170/152
f 26/101/153 44/100/154 43/99/155 30/102/156
f 52/118/157 51/119/158 53/120/159 54/121/160
f 43/99/161 44/100/162 46/98/163 45/97/164
f 58/122/165 57/123/166 59/124/167 60/125/168
f 45/97/169 46/98/170 50/94/171 49/93/172
f 41/37/173 42/38/174 54/39/175 53/40/176
f 48/41/177 47/42/178 55/43/179 56/44/180
f 56/44/181 55/43/182 57/45/183 58/46/184
f 55/171/185 51/172/186 59/173/187 57/174/188
f 51/47/189 52/48/190 60/49/191 59/50/192
f 43/175/193 45/176/194 52/177/195 54/178/196
f 45/179/197 49/180/198 58/181/199 60/182/200
f 66/126/201 65/127/202 67/128/203 68/129/204 69/130/205
f 63/107/206 47/104/207 28/103/208 22/108/209 23/109/210
f 64/183/211 63/184/212 23/185/213 11/186/214
f 61/51/215 41/52/216 65/53/217 66/54/218
f 47/55/219 63/56/220 69/57/221 68/58/222
f 64/187/223 62/188/224 66/189/225 69/190/226
g default
v 2.881375 3.951142 0.648135
v 2.518307 3.951142 0.504924
v 2.172412 3.951142 0.644689
v 2.039197 3.951142 0.997220
v 2.155239 3.951142 1.312772
v 2.518307 3.951142 1.470680
v 2.881375 3.951142 1.323132
v 3.014590 3.951142 0.997220
v 2.724584 4.750292 0.741100
v 2.518307 4.750292 0.670782
v 2.312030 4.750292 0.741100
v 2.226588 4.750292 0.997220
v 2.312030 4.750292 1.253340
v 2.518307 4.750292 1.324081
v 2.724584 4.750292 1.253340
v 2.810026 4.750292 0.997220
v 2.518307 4.803457 0.997220
v 2.761640 4.110425 0.741100
v 2.518307 4.110425 0.654332
v 2.274974 4.110425 0.741100
v 2.174183 4.110425 0.997220
v 2.274974 4.110425 1.253340
v 2.518307 4.110425 1.328162
v 2.761640 4.110425 1.253340
v 2.862431 4.110425 0.997220
vt 0.377977 0.031954
vt 0.407992 0.031954
vt 0.407992 0.106941
vt 0.377977 0.106941
vt 0.366678 0.013287
vt 0.407992 0.013287
vt 0.438007 0.031954
vt 0.438007 0.106941
vt 0.444972 0.013287
vt 0.381787 0.136323
vt 0.411803 0.136323
vt 0.411803 0.211311
vt 0.381787 0.211311
vt 0.373608 0.117656
vt 0.411803 0.117656
vt 0.441818 0.136323
vt 0.441818 0.211311
vt 0.452713 0.117656
vt 0.367848 0.960038
vt 0.328686 0.973388
vt 0.328686 0.911413
vt 0.289524 0.960038
vt 0.384069 0.911413
vt 0.273302 0.911413
vt 0.367848 0.862788
vt 0.289524 0.862788
vt 0.328686 0.849358
vt 0.351142 0.088275
vt 0.322625 0.088275
vt 0.322625 0.013287
vt 0.346799 0.013287
vt 0.365174 0.106941
vt 0.322625 0.106941
vt 0.294108 0.088275
vt 0.298451 0.013287
vt 0.282089 0.106941
vt 0.292914 0.137078
vt 0.321431 0.137078
vt 0.321431 0.212066
vt 0.297257 0.212066
vt 0.278882 0.118412
vt 0.321431 0.118412
vt 0.349948 0.137078
vt 0.345605 0.212066
vt 0.363980 0.118412
vn 0.731919 0.050478 -0.679520
vn 0.000000 0.022965 -0.999736
vn 0.000000 0.022965 -0.999736
vn 0.716608 0.049371 -0.695727
vn -0.731919 0.050477 -0.679519
vn -0.716608 0.049371 -0.695727
vn -0.997566 0.069736 -0.000000
vn -0.997566 0.069736 0.000000
vn -0.726472 0.045974 0.685657
vn -0.710486 0.044600 0.702296
vn -0.000000 0.012563 0.999921
vn -0.000000 0.012563 0.999921
vn 0.726471 0.045974 0.685657
vn 0.710486 0.044601 0.702297
vn 0.997566 0.069736 -0.000000
vn 0.997566 0.069736 -0.000000
vn 0.114479 0.987014 -0.112685
vn 0.000000 0.986996 -0.160748
vn 0.000000 1.000000 0.000001
vn -0.114479 0.987014 -0.112685
vn -0.179295 0.983795 -0.000001
vn -0.114527 0.987013 0.112645
vn 0.000000 0.987029 0.160544
vn 0.114527 0.987013 0.112646
vn 0.179295 0.983795 0.000001
vn 0.522849 0.691584 -0.498338
vn 0.002731 0.668741 -0.743490
vn 0.002143 0.668739 -0.743495
vn 0.498484 0.690336 -0.524357
vn -0.532310 0.667778 -0.520307
vn -0.526269 0.667981 -0.526159
vn -0.755871 0.654638 -0.010403
vn -0.755869 0.654630 -0.010997
vn -0.565136 0.646711 0.512237
vn -0.507214 0.640937 0.576137
vn -0.004966 0.620524 0.784172
vn -0.006699 0.620481 0.784193
vn 0.543032 0.667824 0.509045
vn 0.494434 0.661869 0.563439
vn 0.723454 0.690371 -0.001691
vn 0.723481 0.690344 0.000000
s 1
g Bateria Polo_positivo
usemtl initialShadingGroup
f 87/218/227 88/219/228 79/220/229 78/221/230
f 88/219/228 89/224/231 80/225/232 79/220/229
f 89/191/231 90/192/233 81/193/234 80/194/232
f 90/192/233 91/197/235 82/198/236 81/193/234
f 91/227/235 92/228/237 83/229/238 82/230/236
f 92/228/237 93/233/239 84/234/240 83/229/238
f 93/200/239 94/201/241 85/202/242 84/203/240
f 94/201/241 87/206/227 78/207/230 85/202/242
s 2
f 78/209/243 79/210/244 86/211/245
f 79/210/244 80/212/246 86/211/245
f 80/212/246 81/214/247 86/211/245
f 81/214/247 82/216/248 86/211/245
f 82/216/248 83/217/249 86/211/245
f 83/217/249 84/215/250 86/211/245
f 84/215/250 85/213/251 86/211/245
f 85/213/251 78/209/243 86/211/245
s 3
f 70/222/252 71/223/253 88/219/254 87/218/255
f 71/223/253 72/226/256 89/224/257 88/219/254
f 72/195/256 73/196/258 90/192/259 89/191/257
f 73/196/258 74/199/260 91/197/261 90/192/259
f 74/231/260 75/232/262 92/228/263 91/227/261
f 75/232/262 76/235/264 93/233/265 92/228/263
f 77/205/266 70/208/252 87/206/255 94/201/267
f 93/200/265 76/204/264 77/205/266 94/201/267
g default
v -2.412726 3.951141 0.648135
v -2.775794 3.951141 0.504924
v -3.121689 3.951141 0.644689
v -3.254904 3.951141 0.997220
v -3.138863 3.951141 1.312772
v -2.775794 3.951141 1.470680
v -2.412726 3.951141 1.323132
v -2.279511 3.951141 0.997220
v -2.569518 4.750292 0.741100
v -2.775794 4.750292 0.670783
v -2.982071 4.750292 0.741100
v -3.067513 4.750292 0.997220
v -2.982071 4.750292 1.253340
v -2.775794 4.750292 1.324081
v -2.569518 4.750292 1.253340
v -2.484075 4.750292 0.997220
v -2.775794 4.803457 0.997220
v -2.532462 4.110425 0.741100
v -2.775794 4.110425 0.654332
v -3.019127 4.110425 0.741100
v -3.119918 4.110425 0.997220
v -3.019127 4.110425 1.253340
v -2.775794 4.110425 1.328162
v -2.532462 4.110425 1.253340
v -2.431670 4.110425 0.997220
vt 0.140518 0.038585
vt 0.172009 0.038585
vt 0.172009 0.117258
vt 0.140518 0.117258
vt 0.128664 0.019001
vt 0.172009 0.019001
vt 0.203499 0.038585
vt 0.203499 0.117258
vt 0.210806 0.019001
vt 0.143810 0.144188
vt 0.175300 0.144188
vt 0.175300 0.222861
vt 0.143810 0.222861
vt 0.135229 0.124604
vt 0.175300 0.124604
vt 0.206791 0.144188
vt 0.206791 0.222861
vt 0.218221 0.124604
vt 0.661219 0.970502
vt 0.624294 0.983090
vt 0.624294 0.924656
vt 0.587370 0.970502
vt 0.676513 0.924656
vt 0.572076 0.924656
vt 0.661219 0.878810
vt 0.587370 0.878810
vt 0.624294 0.866147
vt 0.112365 0.097674
vt 0.082446 0.097674
vt 0.082446 0.019001
vt 0.107809 0.019001
vt 0.127086 0.117258
vt 0.082446 0.117258
vt 0.052528 0.097674
vt 0.057084 0.019001
vt 0.039918 0.117258
vt 0.048639 0.144188
vt 0.078558 0.144188
vt 0.078558 0.222861
vt 0.053196 0.222861
vt 0.033918 0.124604
vt 0.078558 0.124604
vt 0.108476 0.144188
vt 0.103920 0.222861
vt 0.123197 0.124604
vn 0.731919 0.050477 -0.679519
vn 0.000000 0.022965 -0.999736
vn 0.000000 0.022965 -0.999736
vn 0.716608 0.049371 -0.695727
vn -0.731919 0.050477 -0.679520
vn -0.716608 0.049371 -0.695727
vn -0.997566 0.069735 -0.000000
vn -0.997566 0.069735 0.000000
vn -0.726472 0.045974 0.685657
vn -0.710486 0.044600 0.702296
vn -0.000000 0.012563 0.999921
vn -0.000000 0.012563 0.999921
vn 0.726472 0.045974 0.685657
vn 0.710486 0.044600 0.702296
vn 0.997566 0.069736 0.000000
vn 0.997566 0.069736 0.000000
vn 0.114479 0.987014 -0.112685
vn 0.000000 0.986996 -0.160748
vn 0.000000 1.000000 0.000000
vn -0.114479 0.987014 -0.112685
vn -0.179295 0.983795 -0.000001
vn -0.114527 0.987013 0.112645
vn 0.000000 0.987029 0.160545
vn 0.114527 0.987013 0.112644
vn 0.179295 0.983795 -0.000001
vn 0.522850 0.691583 -0.498338
vn 0.002732 0.668739 -0.743492
vn 0.002143 0.668737 -0.743496
vn 0.498485 0.690335 -0.524357
vn -0.532311 0.667776 -0.520307
vn -0.526270 0.667979 -0.526160
vn -0.755872 0.654637 -0.010403
vn -0.755870 0.654629 -0.010998
vn -0.565136 0.646711 0.512237
vn -0.507215 0.640936 0.576137
vn -0.004966 0.620522 0.784173
vn -0.006699 0.620479 0.784194
vn 0.543033 0.667823 0.509046
vn 0.494435 0.661868 0.563440
vn 0.723455 0.690369 -0.001691
vn 0.723482 0.690343 0.000000
s 1
g Bateria Polo_negativo
usemtl initialShadingGroup
f 112/263/268 113/264/269 104/265/270 103/266/271
f 113/264/269 114/269/272 105/270/273 104/265/270
f 114/236/272 115/237/274 106/238/275 105/239/273
f 115/237/274 116/242/276 107/243/277 106/238/275
f 116/272/276 117/273/278 108/274/279 107/275/277
f 117/273/278 118/278/280 109/279/281 108/274/279
f 118/245/280 119/246/282 110/247/283 109/248/281
f 119/246/282 112/251/268 103/252/271 110/247/283
s 2
f 103/254/284 104/255/285 111/256/286
f 104/255/285 105/257/287 111/256/286
f 105/257/287 106/259/288 111/256/286
f 106/259/288 107/261/289 111/256/286
f 107/261/289 108/262/290 111/256/286
f 108/262/290 109/260/291 111/256/286
f 109/260/291 110/258/292 111/256/286
f 110/258/292 103/254/284 111/256/286
s 3
f 95/267/293 96/268/294 113/264/295 112/263/296
f 96/268/294 97/271/297 114/269/298 113/264/295
f 97/240/297 98/241/299 115/237/300 114/236/298
f 98/241/299 99/244/301 116/242/302 115/237/300
f 99/276/301 100/277/303 117/273/304 116/272/302
f 100/277/303 101/280/305 118/278/306 117/273/304
f 101/249/305 102/250/307 119/246/308 118/245/306
f 102/250/307 95/253/293 112/251/296 119/246/308
g default
v 0.284939 4.453002 1.242328
v 0.149603 4.509060 1.242328
v 0.014267 4.453002 1.242328
v -0.041791 4.317666 1.242328
v 0.014267 4.182329 1.242328
v 0.149603 4.126271 1.242328
v 0.284939 4.182329 1.242328
v 0.340997 4.317666 1.242328
v 0.284939 4.453002 1.429196
v 0.149603 4.509060 1.429196
v 0.014267 4.453002 1.429196
v -0.041791 4.317666 1.429196
v 0.014267 4.182329 1.429196
v 0.149603 4.126271 1.429196
v 0.284939 4.182329 1.429196
v 0.340997 4.317666 1.429196
v 0.149603 4.317666 1.242328
v 0.149603 4.317666 1.429196
vt 0.337128 0.581292
vt 0.337128 0.522723
vt 0.417998 0.522723
vt 0.417998 0.581292
vt 0.337128 0.464154
vt 0.417998 0.464154
vt 0.325524 0.464040
vt 0.325524 0.522609
vt 0.244653 0.522609
vt 0.244653 0.464040
vt 0.325524 0.581178
vt 0.244653 0.581178
vt 0.607639 0.464154
vt 0.607639 0.522723
vt 0.526769 0.522723
vt 0.526769 0.464154
vt 0.607639 0.581292
vt 0.526769 0.581292
vt 0.434613 0.578213
vt 0.434613 0.519644
vt 0.515483 0.519644
vt 0.515483 0.578213
vt 0.434613 0.461075
vt 0.515483 0.461075
vt 0.171070 0.822685
vt 0.214798 0.840798
vt 0.171070 0.884526
vt 0.232910 0.884526
vt 0.127342 0.840798
vt 0.214798 0.928254
vt 0.109229 0.884526
vt 0.171070 0.946367
vt 0.127342 0.928254
vt 0.529629 0.951483
vt 0.479143 0.972395
vt 0.479143 0.900997
vt 0.428657 0.951483
vt 0.550541 0.900997
vt 0.407745 0.900997
vt 0.529629 0.850511
vt 0.428657 0.850511
vt 0.479143 0.829599
vn 0.660093 0.660093 -0.358546
vn -0.000000 0.933513 -0.358545
vn 0.000000 0.933513 0.358545
vn 0.660093 0.660093 0.358546
vn -0.660093 0.660092 -0.358546
vn -0.660093 0.660093 0.358546
vn -0.933512 0.000000 -0.358547
vn -0.933512 0.000000 0.358547
vn -0.660093 -0.660093 -0.358545
vn -0.660093 -0.660093 0.358545
vn -0.000000 -0.933513 -0.358545
vn -0.000000 -0.933513 0.358545
vn 0.660093 -0.660093 -0.358545
vn 0.660093 -0.660093 0.358545
vn 0.933512 0.000000 -0.358547
vn 0.933512 0.000000 0.358547
vn 0.000000 0.000000 -1.000000
vn 0.000000 0.000000 1.000000
s 1
g Bateria Tornillo
usemtl initialShadingGroup
f 120/293/309 121/294/310 129/295/311 128/296/312
f 121/294/310 122/297/313 130/298/314 129/295/311
f 122/281/313 123/282/315 131/283/316 130/284/314
f 123/282/315 124/285/317 132/286/318 131/283/316
f 124/299/317 125/300/319 133/301/320 132/302/318
f 125/300/319 126/303/321 134/304/322 133/301/320
f 126/287/321 127/288/323 135/289/324 134/290/322
f 127/288/323 120/291/309 128/292/312 135/289/324
f 121/305/310 120/306/309 136/307/325
f 122/309/313 121/305/310 136/307/325
f 123/311/315 122/309/313 136/307/325
f 124/313/317 123/311/315 136/307/325
f 125/312/319 124/313/317 136/307/325
f 126/310/321 125/312/319 136/307/325
f 127/308/323 126/310/321 136/307/325
f 120/306/309 127/308/323 136/307/325
f 128/314/312 129/315/311 137/316/326
f 129/315/311 130/317/314 137/316/326
f 130/317/314 131/319/316 137/316/326
f 131/319/316 132/321/318 137/316/326
f 132/321/318 133/322/320 137/316/326
f 133/322/320 134/320/322 137/316/326
f 134/320/322 135/318/324 137/316/326
f 135/318/324 128/314/312 137/316/326
g default
v 0.284939 4.453002 -1.681247
v 0.149603 4.509060 -1.681247
v 0.014267 4.453002 -1.681247
v -0.041791 4.317666 -1.681247
v 0.014267 4.182329 -1.681247
v 0.149603 4.126271 -1.681247
v 0.284939 4.182329 -1.681247
v 0.340997 4.317666 -1.681247
v 0.284939 4.453002 -1.494378
v 0.149603 4.509060 -1.494378
v 0.014267 4.453002 -1.494378
v -0.041791 4.317666 -1.494378
v 0.014267 4.182329 -1.494378
v 0.149603 4.126271 -1.494378
v 0.284939 4.182329 -1.494378
v 0.340997 4.317666 -1.494378
v 0.149603 4.317666 -1.681247
v 0.149603 4.317666 -1.494378
vt 0.732148 0.565715
vt 0.732148 0.510834
vt 0.807926 0.510834
vt 0.807926 0.565715
vt 0.732148 0.455953
vt 0.807926 0.455953
vt 0.891233 0.455851
vt 0.891233 0.510732
vt 0.815455 0.510732
vt 0.815455 0.455851
vt 0.891233 0.565613
vt 0.815455 0.565613
vt 0.725435 0.457058
vt 0.725435 0.511939
vt 0.649657 0.511939
vt 0.649657 0.457058
vt 0.725435 0.566820
vt 0.649657 0.566820
vt 0.899743 0.566954
vt 0.899743 0.512073
vt 0.975521 0.512073
vt 0.975521 0.566954
vt 0.899743 0.457192
vt 0.975521 0.457192
vt 0.770389 0.850007
vt 0.816768 0.869217
vt 0.770389 0.915596
vt 0.835978 0.915596
vt 0.724011 0.869217
vt 0.816768 0.961974
vt 0.704801 0.915596
vt 0.770389 0.981184
vt 0.724011 0.961974
vt 0.953737 0.957761
vt 0.910186 0.975800
vt 0.910186 0.914210
vt 0.866634 0.957761
vt 0.971777 0.914210
vt 0.848595 0.914210
vt 0.953737 0.870658
vt 0.866634 0.870658
vt 0.910186 0.852619
vn 0.660093 0.660093 -0.358546
vn -0.000000 0.933513 -0.358545
vn -0.000000 0.933513 0.358545
vn 0.660093 0.660093 0.358546
vn -0.660093 0.660093 -0.358546
vn -0.660093 0.660093 0.358546
vn -0.933512 0.000000 -0.358547
vn -0.933512 0.000000 0.358547
vn -0.660093 -0.660093 -0.358545
vn -0.660093 -0.660093 0.358545
vn -0.000000 -0.933513 -0.358545
vn -0.000000 -0.933513 0.358545
vn 0.660093 -0.660093 -0.358545
vn 0.660093 -0.660093 0.358545
vn 0.933512 0.000000 -0.358547
vn 0.933512 0.000000 0.358547
vn 0.000000 0.000000 -1.000000
vn 0.000000 0.000000 1.000000
s 1
g Bateria Tornillo1
usemtl initialShadingGroup
f 138/335/327 139/336/328 147/337/329 146/338/330
f 139/336/328 140/339/331 148/340/332 147/337/329
f 140/323/331 141/324/333 149/325/334 148/326/332
f 141/324/333 142/327/335 150/328/336 149/325/334
f 142/341/335 143/342/337 151/343/338 150/344/336
f 143/342/337 144/345/339 152/346/340 151/343/338
f 144/329/339 145/330/341 153/331/342 152/332/340
f 145/330/341 138/333/327 146/334/330 153/331/342
f 139/347/328 138/348/327 154/349/343
f 140/351/331 139/347/328 154/349/343
f 141/353/333 140/351/331 154/349/343
f 142/355/335 141/353/333 154/349/343
f 143/354/337 142/355/335 154/349/343
f 144/352/339 143/354/337 154/349/343
f 145/350/341 144/352/339 154/349/343
f 138/348/327 145/350/341 154/349/343
f 146/356/330 147/357/329 155/358/344
f 147/357/329 148/359/332 155/358/344
f 148/359/332 149/361/334 155/358/344
f 149/361/334 150/363/336 155/358/344
f 150/363/336 151/364/338 155/358/344
f 151/364/338 152/362/340 155/358/344
f 152/362/340 153/360/342 155/358/344
f 153/360/342 146/356/330 155/358/344
g default
v 0.287567 4.231646 1.415599
v 0.304576 4.296205 1.415599
v -0.451081 4.426261 1.415599
v -0.434071 4.490820 1.415599
v -0.451081 4.426261 1.319504
v -0.434071 4.490820 1.319504
v 0.287567 4.231646 1.319504
v 0.304576 4.296205 1.319504
v -0.714068 4.495552 1.401196
v -0.697059 4.560111 1.401196
v -0.697059 4.560111 1.173437
v -0.714068 4.495552 1.173437
v -0.915991 4.548754 1.120638
v -0.898982 4.613312 1.120638
v -0.798258 4.586774 0.986434
v -0.815267 4.522215 0.986434
v -1.050220 4.584119 0.764789
v -1.033210 4.648678 0.764789
v -0.910471 4.616340 0.724912
v -0.927481 4.551781 0.724912
v -1.053367 4.584949 0.012573
v -1.036358 4.649508 0.012573
v -0.912037 4.616752 0.012573
v -0.929046 4.552193 0.012573
v 0.287567 4.231646 -1.684398
v 0.304576 4.296205 -1.684398
v -0.451081 4.426261 -1.684398
v -0.434071 4.490820 -1.684398
v -0.530623 4.424271 -1.582778
v -0.513614 4.488830 -1.582778
v 0.287567 4.231646 -1.578123
v 0.304576 4.296205 -1.578123
v -0.714068 4.495552 -1.639362
v -0.697059 4.560111 -1.639362
v -0.654194 4.561183 -1.519556
v -0.671203 4.496624 -1.519556
v -0.915991 4.548754 -1.358804
v -0.898982 4.613312 -1.358804
v -0.798258 4.586774 -1.224600
v -0.815267 4.522215 -1.224600
v -1.050220 4.584119 -1.002955
v -1.033210 4.648678 -1.002955
v -0.910471 4.616340 -0.963078
v -0.927481 4.551781 -0.963078
v -1.053367 4.584949 -0.250739
v -1.036358 4.649508 -0.250739
v -0.912037 4.616752 -0.250739
v -0.929046 4.552193 -0.250739
vt 0.816556 0.770712
vt 0.829464 0.770712
vt 0.829464 0.790058
vt 0.816556 0.790058
vt 0.708740 0.647384
vt 0.708502 0.640785
vt 0.727859 0.643096
vt 0.728097 0.649695
vt 0.754899 0.645458
vt 0.755136 0.652057
vt 0.828224 0.642865
vt 0.828462 0.649464
vt 0.855327 0.641889
vt 0.855565 0.648489
vt 0.928887 0.645803
vt 0.928650 0.639203
vt 0.955687 0.641502
vt 0.955449 0.634903
vt 0.985939 0.637405
vt 0.985702 0.630806
vt 0.960632 0.607409
vt 0.960657 0.613755
vt 0.925447 0.617722
vt 0.925423 0.611375
vt 0.988382 0.601538
vt 0.988406 0.607884
vt 0.850988 0.618096
vt 0.850964 0.611750
vt 0.824923 0.618196
vt 0.824899 0.611850
vt 0.750439 0.612044
vt 0.750464 0.618391
vt 0.715201 0.608347
vt 0.715225 0.614693
vt 0.687407 0.602689
vt 0.687431 0.609035
vt 0.851325 0.780992
vt 0.851325 0.765212
vt 0.860844 0.765212
vt 0.860844 0.780992
vt 0.126510 0.638717
vt 0.134287 0.638741
vt 0.134102 0.698106
vt 0.126325 0.698081
vt 0.145857 0.719279
vt 0.127425 0.719221
vt 0.160966 0.727459
vt 0.150080 0.735520
vt 0.182102 0.736544
vt 0.178844 0.746398
vt 0.239750 0.736849
vt 0.239719 0.746840
vt 0.261060 0.736915
vt 0.261029 0.746907
vt 0.321905 0.746843
vt 0.318709 0.736969
vt 0.350737 0.736145
vt 0.339902 0.728016
vt 0.373493 0.719987
vt 0.363808 0.716487
vt 0.377203 0.698862
vt 0.368959 0.705276
vt 0.377388 0.639497
vt 0.368787 0.639471
vt 0.676618 0.630335
vt 0.685033 0.630048
vt 0.687229 0.694281
vt 0.678814 0.694569
vt 0.686749 0.717194
vt 0.666805 0.717876
vt 0.662782 0.735594
vt 0.650731 0.727236
vt 0.632021 0.748331
vt 0.628164 0.737778
vt 0.566161 0.750857
vt 0.565792 0.740046
vt 0.543104 0.751645
vt 0.542735 0.740834
vt 0.480353 0.742830
vt 0.477226 0.753623
vt 0.457119 0.733855
vt 0.445667 0.743016
vt 0.430862 0.722182
vt 0.420499 0.726296
vt 0.424911 0.710224
vt 0.415774 0.703561
vt 0.422884 0.639009
vt 0.413578 0.639327
vt 0.808920 0.594312
vt 0.808827 0.587481
vt 0.886986 0.586416
vt 0.887079 0.593247
vt 0.914813 0.586036
vt 0.914907 0.592867
vt 0.872071 0.675860
vt 0.872361 0.668588
vt 0.955570 0.671896
vt 0.955281 0.679169
vt 0.842446 0.674682
vt 0.842735 0.667409
vt 0.857619 0.699942
vt 0.766368 0.705967
vt 0.765841 0.697991
vt 0.857092 0.691967
vt 0.733879 0.708112
vt 0.733352 0.700136
vt 0.961265 0.723590
vt 0.875813 0.723194
vt 0.875665 0.716408
vt 0.961117 0.716805
vt 0.976732 0.712992
vt 0.976880 0.719778
vn -0.139470 -0.810355 0.569099
vn 0.277934 0.773872 0.569100
vn 0.211930 0.832316 0.512187
vn -0.225704 -0.828687 0.512187
vn -0.161501 -0.870395 -0.465112
vn 0.288349 0.836975 -0.465111
vn 0.277934 0.773871 -0.569101
vn -0.139470 -0.810354 -0.569100
vn -0.044606 0.895757 0.442301
vn -0.480194 -0.757485 0.442301
vn 0.448390 0.860334 -0.242428
vn -0.033748 -0.969582 -0.242429
vn -0.229833 0.939981 0.252214
vn -0.663165 -0.704699 0.252214
vn 0.536299 0.830397 -0.151076
vn 0.057501 -0.986848 -0.151075
vn -0.288281 0.955203 0.066943
vn -0.721524 -0.689146 0.066943
vn 0.596485 0.801361 -0.045021
vn 0.124181 -0.991238 -0.045021
vn -0.230044 0.973179 0.001509
vn -0.679705 -0.733484 0.001508
vn 0.666622 0.745395 -0.000754
vn 0.212790 -0.977098 -0.000754
vn -0.128997 -0.805468 -0.578430
vn -0.230276 -0.811458 -0.537130
vn 0.208322 0.891070 -0.403231
vn 0.287517 0.843845 -0.453056
vn -0.206234 -0.807246 0.553012
vn -0.139652 -0.853051 0.502794
vn 0.253876 0.753387 0.606593
vn 0.250816 0.706355 0.661932
vn -0.542130 -0.648427 -0.534450
vn -0.142418 0.844294 -0.516608
vn 0.468424 0.858718 0.207804
vn 0.039658 -0.972719 0.228570
vn -0.632004 -0.736722 -0.240440
vn -0.239513 0.938613 -0.248274
vn 0.578540 0.797397 0.171610
vn 0.134355 -0.975502 0.174198
vn -0.721524 -0.689146 -0.066943
vn -0.288280 0.955203 -0.066943
vn 0.596485 0.801361 0.045021
vn 0.124182 -0.991238 0.045021
vn -0.679705 -0.733484 -0.001508
vn -0.230044 0.973179 -0.001509
vn 0.666622 0.745395 0.000754
vn 0.212790 -0.977098 0.000755
s 1
g Bateria Agarre
usemtl initialShadingGroup
f 156/453/345 157/454/346 159/455/347 158/456/348
f 160/459/349 161/460/350 163/461/351 162/462/352
f 162/365/352 163/366/351 157/367/346 156/368/345
f 157/405/346 163/406/351 161/407/350 159/408/347
f 162/429/352 156/430/345 158/431/348 160/432/349
f 158/456/348 159/455/347 165/457/353 164/458/354
f 159/408/347 161/407/350 166/409/355 165/410/353
f 161/460/350 160/459/349 167/463/356 166/464/355
f 160/432/349 158/431/348 164/433/354 167/434/356
f 164/389/354 165/390/353 169/386/357 168/385/358
f 165/410/353 166/409/355 170/411/359 169/412/357
f 166/369/355 167/370/356 171/371/360 170/372/359
f 167/434/356 164/433/354 168/435/358 171/436/360
f 168/385/358 169/386/357 173/387/361 172/388/362
f 169/412/357 170/411/359 174/413/363 173/414/361
f 170/372/359 171/371/360 175/373/364 174/374/363
f 171/436/360 168/435/358 172/437/362 175/438/364
f 172/388/362 173/387/361 177/391/365 176/392/366
f 173/414/361 174/413/363 178/415/367 177/416/365
f 174/374/363 175/373/364 179/375/368 178/376/367
f 175/438/364 172/437/362 176/439/366 179/440/368
f 180/465/369 182/466/370 183/467/371 181/468/372
f 184/471/373 186/472/374 187/473/375 185/474/376
f 186/401/374 180/402/369 181/403/372 187/404/375
f 181/427/372 183/425/371 185/426/376 187/428/375
f 186/451/374 184/449/373 182/450/370 180/452/369
f 182/466/370 188/469/377 189/470/378 183/467/371
f 183/425/371 189/423/378 190/424/379 185/426/376
f 185/474/376 190/475/379 191/476/380 184/471/373
f 184/449/373 191/447/380 188/448/377 182/450/370
f 188/399/377 192/397/381 193/398/382 189/400/378
f 189/423/378 193/421/382 194/422/383 190/424/379
f 190/383/379 194/381/383 195/382/384 191/384/380
f 191/447/380 195/445/384 192/446/381 188/448/377
f 192/397/381 196/395/385 197/396/386 193/398/382
f 193/421/382 197/419/386 198/420/387 194/422/383
f 194/381/383 198/379/387 199/380/388 195/382/384
f 195/445/384 199/443/388 196/444/385 192/446/381
f 196/395/385 200/394/389 201/393/390 197/396/386
f 197/419/386 201/418/390 202/417/391 198/420/387
f 198/379/387 202/378/391 203/377/392 199/380/388
f 199/443/388 203/442/392 200/441/389 196/444/385
f 179/440/368 176/439/366 200/441/389 203/442/392
f 176/392/366 177/391/365 201/393/390 200/394/389
f 177/416/365 178/415/367 202/417/391 201/418/390
f 178/376/367 179/375/368 203/377/392 202/378/391
